# xmcd
#
# Track frame offsets:
#	202
#	12092
#	24425
#	34655
#	45650
#	56407
#	67057
#	78447
#	90860
#	99112
#	111747
#	124935
#	143100
#	157550
#	169502
#	183507
#
# Disc length: 2612 seconds
#
# Revision: 0
# Processed by: cddbd v1.5.2PL0 Copyright (c) Steve Scherf et al.
# Submitted via: audiograbber 1.83.01
#
DISCID=be0a3210
DTITLE=Paul Rishell - Blues On A Holiday
DYEAR=1991
DGENRE=Blues
TTITLE0=Big Road Blues
TTITLE1=Creepy John
TTITLE2=Jinx Blues
TTITLE3=Dallas
TTITLE4=Careless Love
TTITLE5=Louise
TTITLE6=Too Tight
TTITLE7=Trouble Blues
TTITLE8=Honey It Must Be Love
TTITLE9=Talk To Me Baby
TTITLE10=Keep It To Yourself
TTITLE11=Possession
TTITLE12=You Got Me Wrong
TTITLE13=Like I Used To Do
TTITLE14=Blues On A Holiday
TTITLE15=Hoodoo Party
EXTD=YEAR: 1991
EXTT0=
EXTT1=
EXTT2=
EXTT3=
EXTT4=
EXTT5=
EXTT6=
EXTT7=
EXTT8=
EXTT9=
EXTT10=
EXTT11=
EXTT12=
EXTT13=
EXTT14=
EXTT15=
PLAYORDER=
